<?xml version="1.0" encoding="utf-8"?>
<!-- Generator: Adobe Illustrator 16.0.4, SVG Export Plug-In . SVG Version: 6.00 Build 0)  -->
<!DOCTYPE svg PUBLIC "-//W3C//DTD SVG 1.1//EN" "http://www.w3.org/Graphics/SVG/1.1/DTD/svg11.dtd">
<svg version="1.1" id="Layer_1" xmlns:sketch="http://www.bohemiancoding.com/sketch/ns"
	 xmlns="http://www.w3.org/2000/svg" xmlns:xlink="http://www.w3.org/1999/xlink" x="0px" y="0px" width="618px" height="637px"
	 viewBox="0 0 618 637" enable-background="new 0 0 618 637" xml:space="preserve">
<g>
	<path id="path-2" fill="#FFFFFF" d="M-1,636.769c173.838,0,314.769-142.436,314.769-318.143C313.769,142.922,172.838,0.487-1,0.487
		V636.769"/>
</g>
<title>Shape Copy + Group + Rectangle 1 + Group 3 Copy</title>
<desc>Created with Sketch.</desc>
<g id="Page-1" sketch:type="MSPage">
	<g id="Desktop" transform="translate(0.000000, -1028.000000)" sketch:type="MSArtboardGroup">
		
			<g id="Shape-Copy-_x2B_-Group-_x2B_-Rectangle-1-_x2B_-Group-3-Copy" transform="translate(-1.000000, 1025.000000)" sketch:type="MSLayerGroup">
			<path id="Shape-Copy" sketch:type="MSShapeGroup" fill="#FFFFFF" d="M448.439,414.618l170.295-172.146l-13.271-13.415
				L435.17,401.204L448.439,414.618L448.439,414.618z M435.17,242.472l170.294,172.146l13.271-13.414L448.439,229.058
				L435.17,242.472L435.17,242.472z"/>
			<g id="Group-_x2B_-Rectangle-1-_x2B_-Group-3-Copy">
				<g id="Rectangle-1-_x2B_-Group-3-Copy">
					<g id="Group-3-Copy" transform="translate(0.000000, 0.490840)">
						<g id="Clip-2" sketch:type="MSShapeGroup">
							<path id="path-2_1_" fill="#FFFFFF" d="M0,639.278c173.838,0,314.769-142.436,314.769-318.143
								C314.769,145.431,173.838,2.996,0,2.996V639.278"/>
						</g>
					</g>
				</g>
			</g>
		</g>
	</g>
</g>
</svg>
