<?xml version="1.0" encoding="utf-8"?>
<!-- Generator: Adobe Illustrator 16.0.4, SVG Export Plug-In . SVG Version: 6.00 Build 0)  -->
<!DOCTYPE svg PUBLIC "-//W3C//DTD SVG 1.1//EN" "http://www.w3.org/Graphics/SVG/1.1/DTD/svg11.dtd">
<svg version="1.1" id="Layer_1" xmlns="http://www.w3.org/2000/svg" xmlns:xlink="http://www.w3.org/1999/xlink" x="0px" y="0px"
	 width="283.465px" height="64.871px" viewBox="0 0 283.465 64.871" enable-background="new 0 0 283.465 64.871"
	 xml:space="preserve">
<g>
	<path d="M104.511,2.628H75.374v59.623h28.56c18.491-0.205,31.228-13.166,31.228-29.9C135.162,15.795,122.688,3.085,104.511,2.628z
		 M103.979,51.989V51.98H86.069V12.882h18.075c11.741,0.276,19.384,8.474,19.384,19.63
		C123.528,43.721,115.814,51.793,103.979,51.989z"/>
	<polygon points="59.628,13.104 59.628,2.628 0,2.628 0,13.104 24.453,13.104 24.453,51.774 0,51.774 0,62.251 59.628,62.251 
		59.628,51.774 35.18,51.774 35.18,13.104 	"/>
	<polygon points="208.35,13.061 208.35,2.628 148.244,2.628 148.244,62.251 208.35,62.251 208.35,51.811 159.024,51.811 
		159.024,37.651 197.525,37.651 197.525,27.22 159.024,27.22 159.024,13.061 	"/>
	<path d="M250.699,0c-18.098,0-32.764,14.526-32.764,32.432c0,17.922,14.666,32.439,32.764,32.439
		c18.092,0,32.766-14.518,32.766-32.439C283.465,14.526,268.791,0,250.699,0z M250.699,53.679c-11.846,0-21.453-9.511-21.453-21.247
		c0-11.72,9.607-21.231,21.453-21.231c11.844,0,21.453,9.512,21.453,21.231C272.152,44.168,262.543,53.679,250.699,53.679z"/>
</g>
</svg>
